<mxfile host="app.diagrams.net" modified="2024-04-23T00:46:18.168Z" agent="Mozilla/5.0 (Windows NT 10.0; Win64; x64) AppleWebKit/537.36 (KHTML, like Gecko) Chrome/123.0.0.0 Safari/537.36" etag="S570-mSuirHaG0pumzzy" version="24.2.8" type="device">
  <diagram name="Page-1" id="2YBvvXClWsGukQMizWep">
    <mxGraphModel dx="1290" dy="522" grid="1" gridSize="10" guides="1" tooltips="1" connect="1" arrows="1" fold="1" page="1" pageScale="1" pageWidth="850" pageHeight="1100" math="0" shadow="0">
      <root>
        <mxCell id="0" />
        <mxCell id="1" parent="0" />
        <mxCell id="jhJ7n12vAEM2XSlynm5L-2" value="c:Combo" style="shape=umlLifeline;perimeter=lifelinePerimeter;whiteSpace=wrap;html=1;container=1;dropTarget=0;collapsible=0;recursiveResize=0;outlineConnect=0;portConstraint=eastwest;newEdgeStyle={&quot;curved&quot;:0,&quot;rounded&quot;:0};" parent="1" vertex="1">
          <mxGeometry x="90" y="40" width="100" height="300" as="geometry" />
        </mxCell>
        <mxCell id="jhJ7n12vAEM2XSlynm5L-7" value="" style="html=1;points=[[0,0,0,0,5],[0,1,0,0,-5],[1,0,0,0,5],[1,1,0,0,-5]];perimeter=orthogonalPerimeter;outlineConnect=0;targetShapes=umlLifeline;portConstraint=eastwest;newEdgeStyle={&quot;curved&quot;:0,&quot;rounded&quot;:0};" parent="jhJ7n12vAEM2XSlynm5L-2" vertex="1">
          <mxGeometry x="45" y="130" width="10" height="90" as="geometry" />
        </mxCell>
        <mxCell id="jhJ7n12vAEM2XSlynm5L-16" value="1:imprimirTicket()" style="html=1;verticalAlign=bottom;endArrow=block;curved=0;rounded=0;" parent="1" edge="1">
          <mxGeometry width="80" relative="1" as="geometry">
            <mxPoint x="50" y="120" as="sourcePoint" />
            <mxPoint x="130" y="120" as="targetPoint" />
          </mxGeometry>
        </mxCell>
        <mxCell id="N8Ltvmkbns1XQcIipFLh-1" value="loop foreach" style="shape=umlFrame;whiteSpace=wrap;html=1;pointerEvents=0;" vertex="1" parent="1">
          <mxGeometry x="110" y="130" width="510" height="160" as="geometry" />
        </mxCell>
        <mxCell id="N8Ltvmkbns1XQcIipFLh-2" value="items:List&amp;lt;ComponenteCombo&amp;gt;" style="shape=umlLifeline;perimeter=lifelinePerimeter;whiteSpace=wrap;html=1;container=1;dropTarget=0;collapsible=0;recursiveResize=0;outlineConnect=0;portConstraint=eastwest;newEdgeStyle={&quot;curved&quot;:0,&quot;rounded&quot;:0};" vertex="1" parent="1">
          <mxGeometry x="220" y="40" width="220" height="300" as="geometry" />
        </mxCell>
        <mxCell id="N8Ltvmkbns1XQcIipFLh-5" value="" style="html=1;points=[[0,0,0,0,5],[0,1,0,0,-5],[1,0,0,0,5],[1,1,0,0,-5]];perimeter=orthogonalPerimeter;outlineConnect=0;targetShapes=umlLifeline;portConstraint=eastwest;newEdgeStyle={&quot;curved&quot;:0,&quot;rounded&quot;:0};" vertex="1" parent="N8Ltvmkbns1XQcIipFLh-2">
          <mxGeometry x="105" y="140" width="10" height="40" as="geometry" />
        </mxCell>
        <mxCell id="N8Ltvmkbns1XQcIipFLh-3" value="item:ComponenteCombo" style="shape=umlLifeline;perimeter=lifelinePerimeter;whiteSpace=wrap;html=1;container=1;dropTarget=0;collapsible=0;recursiveResize=0;outlineConnect=0;portConstraint=eastwest;newEdgeStyle={&quot;curved&quot;:0,&quot;rounded&quot;:0};" vertex="1" parent="1">
          <mxGeometry x="480" y="40" width="160" height="300" as="geometry" />
        </mxCell>
        <mxCell id="N8Ltvmkbns1XQcIipFLh-7" value="" style="html=1;points=[[0,0,0,0,5],[0,1,0,0,-5],[1,0,0,0,5],[1,1,0,0,-5]];perimeter=orthogonalPerimeter;outlineConnect=0;targetShapes=umlLifeline;portConstraint=eastwest;newEdgeStyle={&quot;curved&quot;:0,&quot;rounded&quot;:0};" vertex="1" parent="N8Ltvmkbns1XQcIipFLh-3">
          <mxGeometry x="75" y="190" width="10" height="40" as="geometry" />
        </mxCell>
        <mxCell id="N8Ltvmkbns1XQcIipFLh-4" value="2:getElemento()" style="html=1;verticalAlign=bottom;endArrow=block;curved=0;rounded=0;" edge="1" parent="1">
          <mxGeometry width="80" relative="1" as="geometry">
            <mxPoint x="145" y="189.5" as="sourcePoint" />
            <mxPoint x="325" y="189.5" as="targetPoint" />
          </mxGeometry>
        </mxCell>
        <mxCell id="N8Ltvmkbns1XQcIipFLh-6" value="3:imprimirTicket()" style="html=1;verticalAlign=bottom;endArrow=block;curved=0;rounded=0;exitX=1.5;exitY=0.778;exitDx=0;exitDy=0;exitPerimeter=0;" edge="1" parent="1" source="jhJ7n12vAEM2XSlynm5L-7" target="N8Ltvmkbns1XQcIipFLh-7">
          <mxGeometry width="80" relative="1" as="geometry">
            <mxPoint x="180" y="240" as="sourcePoint" />
            <mxPoint x="560" y="230" as="targetPoint" />
          </mxGeometry>
        </mxCell>
      </root>
    </mxGraphModel>
  </diagram>
</mxfile>
